<!DOCTYPE svg PUBLIC "-//W3C//DTD SVG 1.1//EN" "http://www.w3.org/Graphics/SVG/1.1/DTD/svg11.dtd">
<!-- Uploaded to: SVG Repo, www.svgrepo.com, Transformed by: SVG Repo Mixer Tools -->
<svg fill="#22d3ee" height="800px" width="800px" version="1.1" id="Layer_1" xmlns="http://www.w3.org/2000/svg" xmlns:xlink="http://www.w3.org/1999/xlink" viewBox="0 0 512.005 512.005" xml:space="preserve">
<g id="SVGRepo_bgCarrier" stroke-width="0"/>
<g id="SVGRepo_tracerCarrier" stroke-linecap="round" stroke-linejoin="round"/>
<g id="SVGRepo_iconCarrier"> <g> <g> <path d="M435.378,411.823c-2.025-0.268-50.159-6.404-101.033,11.793c-30.205,10.805-54.223,27.629-69.045,39.83v-38.161 c3.101,0.145,6.723,0.248,10.795,0.248c19.202,0,48.253-2.269,78.254-13.003c50.874-18.199,84.195-53.474,85.588-54.967 c1.945-2.084,2.563-5.079,1.603-7.763c-0.96-2.684-3.338-4.606-6.163-4.984c-2.026-0.269-50.159-6.406-101.033,11.793 c-30.205,10.805-54.223,27.63-69.045,39.83v-37.786c3.1,0.145,6.722,0.248,10.793,0.248c19.202,0,48.253-2.269,78.254-13.003 c50.874-18.2,84.195-53.474,85.588-54.967c1.945-2.084,2.563-5.078,1.603-7.763c-0.96-2.684-3.338-4.606-6.163-4.983 c-2.026-0.272-50.158-6.408-101.033,11.792c-30.205,10.805-54.223,27.629-69.045,39.83v-37.783 c3.101,0.145,6.723,0.248,10.796,0.248c19.202,0,48.255-2.269,78.253-13.002c50.874-18.2,84.195-53.474,85.588-54.967 c1.945-2.084,2.563-5.078,1.603-7.763c-0.96-2.684-3.338-4.606-6.163-4.984c-2.025-0.269-50.158-6.407-101.033,11.792 c-30.205,10.805-54.223,27.63-69.045,39.83v-44.337c1.402,0.039,2.95,0.064,4.645,0.064c15.694,0,43.283-2.095,70.798-14.296 c41-18.181,65.474-51.547,66.495-52.958c1.59-2.196,1.892-5.073,0.793-7.553c-1.1-2.48-3.435-4.187-6.131-4.483 c-1.731-0.191-42.888-4.452-83.889,13.731c-18.319,8.124-33.325,19.274-44.427,29.255c5.756-18.504,12.14-46.008,12.14-76.976 c0-55.181-20.271-99.37-21.134-101.225C263.337,1.717,260.644,0,257.683,0c-2.962,0-5.655,1.717-6.905,4.402 c-0.863,1.854-21.133,46.044-21.133,101.225c0,30.968,6.384,58.472,12.14,76.975c-11.103-9.981-26.109-21.13-44.426-29.254 c-41-18.18-82.157-13.922-83.89-13.731c-2.696,0.297-5.031,2.003-6.13,4.483c-1.1,2.479-0.798,5.355,0.793,7.553 c1.022,1.412,25.495,34.777,66.495,52.958c27.517,12.204,55.105,14.296,70.797,14.296c1.696,0,3.242-0.025,4.646-0.064v47.162 c-14.397-12.303-39.783-30.983-72.407-42.654c-50.874-18.199-99.009-12.061-101.034-11.792c-2.825,0.378-5.203,2.301-6.164,4.984 c-0.96,2.685-0.34,5.679,1.604,7.763c1.394,1.493,34.716,36.767,85.59,54.967c30.001,10.732,59.051,13.002,78.252,13.002 c5.653,0,10.44-0.197,14.158-0.433v40.793c-14.397-12.303-39.783-30.984-72.407-42.654c-50.875-18.2-99.009-12.062-101.034-11.793 c-2.825,0.378-5.203,2.301-6.164,4.984c-0.96,2.685-0.34,5.679,1.604,7.763c1.394,1.493,34.716,36.767,85.589,54.967 c30.005,10.733,59.052,13.003,78.254,13.003c5.652,0,10.438-0.197,14.157-0.433v40.792 c-14.397-12.303-39.783-30.983-72.407-42.654c-50.873-18.2-99.009-12.062-101.034-11.793c-2.825,0.378-5.203,2.301-6.163,4.984 c-0.961,2.684-0.341,5.679,1.603,7.763c1.394,1.493,34.716,36.768,85.589,54.967c30.005,10.733,59.052,13.003,78.254,13.003 c5.652,0,10.438-0.197,14.157-0.433v41.171c-14.397-12.303-39.783-30.984-72.407-42.654 c-50.875-18.2-99.009-12.061-101.034-11.793c-2.825,0.378-5.203,2.301-6.164,4.984c-0.96,2.685-0.34,5.679,1.604,7.763 c1.394,1.493,34.716,36.767,85.59,54.967c30.005,10.733,59.054,13.002,78.255,13.002c5.651,0,10.437-0.197,14.155-0.433v12.283 c0,4.207,3.41,7.616,7.616,7.616c4.206,0,7.616-3.409,7.616-7.616V492.29c3.1,0.145,6.722,0.248,10.793,0.248 c19.201,0,48.255-2.268,78.256-13.002c50.874-18.2,84.195-53.474,85.588-54.967c1.945-2.084,2.563-5.078,1.603-7.763 C440.581,414.123,438.203,412.201,435.378,411.823z M339.474,370.948c29.623-10.596,58.805-12.261,76.588-12.028 c-13.561,11.451-37.147,28.641-66.845,39.265c-29.611,10.594-58.793,12.277-76.564,12.028 C286.247,398.748,309.866,381.539,339.474,370.948z M339.474,304.32c29.614-10.594,58.791-12.283,76.563-12.028 c-13.594,11.463-37.213,28.673-66.821,39.265c-29.625,10.599-58.798,12.266-76.59,12.028 C286.19,332.133,309.774,314.943,339.474,304.32z M339.474,237.692c29.609-10.592,58.777-12.267,76.563-12.027 c-13.594,11.463-37.211,28.672-66.821,39.265c-29.61,10.592-58.794,12.269-76.564,12.027 C286.247,265.492,309.866,248.284,339.474,237.692z M324.183,167.272c22.71-10.071,45.953-12.519,60.664-12.893 c-10.155,10.655-27.572,26.238-50.28,36.307c-22.71,10.072-45.95,12.519-60.664,12.893 C284.058,192.924,301.476,177.342,324.183,167.272z M180.799,190.686c-22.71-10.07-40.128-25.653-50.281-36.306 c14.715,0.374,37.956,2.822,60.664,12.892c22.723,10.077,40.147,25.67,50.3,36.326 C226.801,203.237,203.593,200.795,180.799,190.686z M162.788,264.93c-29.625-10.598-53.252-27.819-66.84-39.281 c17.739-0.25,46.887,1.42,76.583,12.042c29.622,10.597,53.25,27.818,66.84,39.281C221.615,277.23,192.483,275.551,162.788,264.93z M162.788,331.558c-29.611-10.593-53.229-27.802-66.822-39.265c17.791-0.241,46.958,1.436,76.565,12.028 c29.61,10.593,53.227,27.801,66.821,39.265C221.567,343.834,192.395,342.148,162.788,331.558z M162.787,398.185 c-29.61-10.593-53.228-27.802-66.821-39.265c17.789-0.249,46.957,1.438,76.564,12.028c29.608,10.592,53.227,27.801,66.822,39.265 C221.567,410.451,192.395,408.777,162.787,398.185z M162.788,465.19c-29.611-10.593-53.229-27.802-66.822-39.265 c17.791-0.241,46.958,1.436,76.565,12.028c29.622,10.597,53.249,27.817,66.84,39.281 C221.615,477.484,192.483,475.813,162.788,465.19z M257.674,182.143c-5.681-17.293-12.799-45.205-12.799-76.516 c0.001-31.239,7.131-59.195,12.815-76.516c5.681,17.292,12.799,45.205,12.799,76.516 C270.489,136.866,263.359,164.821,257.674,182.143z M349.216,465.19c-29.625,10.597-58.825,12.272-76.589,12.027 c13.563-11.45,37.148-28.64,66.847-39.264c29.614-10.594,58.791-12.266,76.563-12.028 C402.443,437.389,378.824,454.598,349.216,465.19z"/> </g> </g> </g>
</svg>